<svg xmlns="http://www.w3.org/2000/svg" width="512" height="512" viewBox="0 0 512 512">
  <defs>
    <linearGradient id="mix" x1="0" y1="0" x2="512" y2="512" gradientUnits="userSpaceOnUse">
      <stop offset="0" stop-color="#FFE066"/>
      <stop offset="0.52" stop-color="#FFA630"/>
      <stop offset="1" stop-color="#F2683C"/>
    </linearGradient>
    <clipPath id="face-mix">
      <rect x="10" y="10" width="492" height="492" rx="105"/>
    </clipPath>
    <clipPath id="lens-upper"><circle cx="241" cy="128" r="29"/></clipPath>
    <clipPath id="lens-lower"><circle cx="241" cy="384" r="29"/></clipPath>
  </defs>

  <rect x="0" y="0" width="512" height="512" rx="115" fill="#090A0E"/>
  <rect x="10" y="10" width="492" height="492" rx="105" fill="#F7F4EB"/>

  <g clip-path="url(#face-mix)">
    <path d="M256 0H512V512H256A128 128 0 0 1 256 256A128 128 0 0 0 256 0Z" fill="url(#mix)"/>
  </g>

  <g fill="url(#mix)">
    <circle cx="241" cy="128" r="29"/>
    <circle cx="271" cy="128" r="29"/>
  </g>
  <g clip-path="url(#lens-upper)">
    <circle cx="271" cy="128" r="29" fill="#F7F4EB"/>
  </g>

  <g fill="#F7F4EB">
    <circle cx="241" cy="384" r="29"/>
    <circle cx="271" cy="384" r="29"/>
  </g>
  <g clip-path="url(#lens-lower)">
    <circle cx="271" cy="384" r="29" fill="url(#mix)"/>
  </g>
</svg>
