<svg xmlns="http://www.w3.org/2000/svg" width="512" height="512" viewBox="0 0 512 512">
  <defs>
    <linearGradient id="visual" x1="0" y1="0" x2="512" y2="512" gradientUnits="userSpaceOnUse">
      <stop offset="0" stop-color="#6D5CFF"/>
      <stop offset="0.52" stop-color="#D849FF"/>
      <stop offset="1" stop-color="#FF6B6B"/>
    </linearGradient>
    <clipPath id="face">
      <rect x="10" y="10" width="492" height="492" rx="105"/>
    </clipPath>
  </defs>

  <rect x="0" y="0" width="512" height="512" rx="115" fill="#090A0E"/>
  <rect x="10" y="10" width="492" height="492" rx="105" fill="#F7F4EB"/>

  <g clip-path="url(#face)">
    <path d="M256 0H512V512H256A128 128 0 0 1 256 256A128 128 0 0 0 256 0Z" fill="url(#visual)"/>

    <g fill="none" stroke-width="24" stroke-linecap="round">
      <g stroke="url(#visual)" opacity="0.96">
        <path d="M256 128C176 190 110 212 0 218"/>
        <path d="M256 128C168 142 92 128 0 82"/>
        <path d="M256 128C186 82 130 42 84 -16"/>
      </g>
      <g stroke="#090A0E" opacity="0.52">
        <path d="M256 384C336 322 402 300 512 294"/>
        <path d="M256 384C344 370 420 384 512 430"/>
        <path d="M256 384C326 430 382 470 428 528"/>
      </g>
    </g>
  </g>

  <circle cx="256" cy="128" r="38" fill="url(#visual)"/>
  <circle cx="256" cy="384" r="38" fill="#F7F4EB"/>
</svg>
